<?xml version="1.0" encoding="UTF-8"?>
<svg xmlns="http://www.w3.org/2000/svg" xmlns:xlink="http://www.w3.org/1999/xlink" width="px" height="px" viewBox="0 0 278 83" version="1.1">
<g id="surface1">
<path style=" stroke:none;fill-rule:nonzero;fill:rgb(6.27451%,7.058824%,27.450982%);fill-opacity:1;" d="M 93.027344 67.050781 L 76.800781 67.050781 L 76.800781 34.457031 C 76.671875 31.925781 75.261719 30.628906 72.554688 30.566406 L 63.875 30.566406 L 63.875 67.050781 L 47.652344 67.050781 L 47.652344 30.566406 L 38.59375 30.566406 C 36.015625 30.566406 34.789062 31.804688 34.914062 34.28125 L 34.914062 67.054688 L 18.5 67.054688 L 18.5 27.46875 C 18.5 25.707031 18.8125 24.085938 19.445312 22.613281 C 20.074219 21.140625 20.953125 19.875 22.085938 18.8125 C 23.28125 17.691406 24.660156 16.839844 26.234375 16.25 C 27.867188 15.601562 29.628906 15.277344 31.519531 15.277344 L 80.101562 15.277344 C 82.109375 15.277344 83.90625 15.601562 85.476562 16.25 C 87.109375 16.898438 88.464844 17.78125 89.535156 18.898438 C 90.667969 19.957031 91.519531 21.253906 92.082031 22.785156 C 92.714844 24.257812 93.027344 25.816406 93.027344 27.464844 Z M 93.027344 67.050781 "/>
<path style=" stroke:none;fill-rule:nonzero;fill:rgb(6.27451%,7.058824%,27.450982%);fill-opacity:1;" d="M 109.347656 67.050781 C 100.355469 67.050781 95.859375 63.253906 95.859375 55.652344 L 95.859375 0 L 112.175781 0 L 112.175781 15.28125 L 125.101562 15.28125 L 125.101562 30.5625 L 112.175781 30.5625 L 112.175781 48.761719 C 112.175781 50.761719 112.996094 51.765625 114.628906 51.765625 L 125.007812 51.765625 L 125.007812 67.046875 L 109.347656 67.046875 Z M 109.347656 67.050781 "/>
<path style=" stroke:none;fill-rule:evenodd;fill:rgb(6.27451%,7.058824%,27.450982%);fill-opacity:1;" d="M 156.699219 51.765625 C 159.53125 51.765625 160.945312 50.46875 160.945312 47.875 L 160.945312 34.453125 C 160.945312 31.859375 159.59375 30.5625 156.890625 30.5625 L 143.398438 30.5625 L 143.398438 51.765625 Z M 177.269531 54.683594 C 177.269531 62.925781 172.929688 67.050781 164.25 67.050781 L 143.304688 67.050781 L 143.304688 82.601562 L 127.082031 82.601562 L 127.082031 15.28125 L 164.25 15.28125 C 172.925781 15.28125 177.269531 19.285156 177.269531 27.292969 Z M 177.269531 54.683594 "/>
<path style=" stroke:none;fill-rule:evenodd;fill:rgb(35.686275%,69.411767%,86.274511%);fill-opacity:1;" d="M 5.441406 23.207031 C 5.441406 21.6875 6.753906 20.460938 8.371094 20.460938 C 9.992188 20.460938 11.300781 21.691406 11.300781 23.207031 C 11.300781 24.71875 9.992188 25.953125 8.371094 25.953125 C 6.753906 25.953125 5.441406 24.71875 5.441406 23.207031 Z M 0 23.207031 C 0 18.878906 3.75 15.363281 8.371094 15.363281 C 12.996094 15.363281 16.746094 18.875 16.746094 23.207031 C 16.746094 27.539062 12.996094 31.050781 8.371094 31.050781 C 3.75 31.050781 0 27.539062 0 23.207031 Z M 0 23.207031 "/>
<path style=" stroke:none;fill-rule:nonzero;fill:rgb(6.27451%,7.058824%,27.450982%);fill-opacity:1;" d="M 186.117188 15.234375 L 185.46875 15.234375 L 185.46875 66.765625 L 186.117188 66.765625 Z M 186.117188 15.234375 "/>
<path style=" stroke:none;fill-rule:nonzero;fill:rgb(6.27451%,7.058824%,27.450982%);fill-opacity:1;" d="M 200.402344 17.898438 C 201.242188 18.414062 201.890625 19.15625 202.34375 20.117188 C 202.792969 21.082031 203.019531 22.214844 203.019531 23.523438 C 203.019531 24.828125 202.792969 25.957031 202.34375 26.914062 C 201.890625 27.875 201.246094 28.605469 200.402344 29.109375 C 199.558594 29.613281 198.5625 29.867188 197.40625 29.867188 L 194.117188 29.867188 L 194.117188 17.113281 L 197.40625 17.113281 C 198.554688 17.113281 199.554688 17.375 200.402344 17.890625 Z M 200.53125 27.191406 C 201.246094 26.324219 201.605469 25.09375 201.605469 23.523438 C 201.605469 21.949219 201.242188 20.699219 200.519531 19.808594 C 199.796875 18.921875 198.757812 18.472656 197.40625 18.472656 L 195.496094 18.472656 L 195.496094 28.5 L 197.40625 28.5 C 198.769531 28.5 199.8125 28.0625 200.53125 27.1875 Z M 200.53125 27.191406 "/>
<path style=" stroke:none;fill-rule:nonzero;fill:rgb(6.27451%,7.058824%,27.450982%);fill-opacity:1;" d="M 205.90625 17.121094 L 205.90625 29.871094 L 204.527344 29.871094 L 204.527344 17.121094 Z M 205.90625 17.121094 "/>
<path style=" stroke:none;fill-rule:nonzero;fill:rgb(6.27451%,7.058824%,27.450982%);fill-opacity:1;" d="M 215.953125 20.816406 C 215.660156 20.074219 215.234375 19.5 214.679688 19.085938 C 214.121094 18.679688 213.480469 18.476562 212.738281 18.476562 C 211.996094 18.476562 211.335938 18.679688 210.746094 19.085938 C 210.15625 19.492188 209.6875 20.082031 209.351562 20.847656 C 209.011719 21.609375 208.847656 22.488281 208.847656 23.488281 C 208.847656 24.488281 209.015625 25.367188 209.351562 26.125 C 209.691406 26.878906 210.15625 27.460938 210.746094 27.867188 C 211.335938 28.277344 212.003906 28.480469 212.738281 28.480469 C 213.769531 28.480469 214.617188 28.109375 215.28125 27.363281 C 215.949219 26.617188 216.335938 25.613281 216.449219 24.34375 L 212.238281 24.34375 L 212.238281 22.988281 L 217.917969 22.988281 L 217.917969 24.273438 C 217.835938 25.324219 217.5625 26.28125 217.097656 27.15625 C 216.632812 28.027344 216.023438 28.714844 215.265625 29.226562 C 214.503906 29.730469 213.664062 29.984375 212.734375 29.984375 C 211.753906 29.984375 210.863281 29.707031 210.050781 29.152344 C 209.242188 28.59375 208.601562 27.824219 208.132812 26.835938 C 207.664062 25.851562 207.429688 24.730469 207.429688 23.488281 C 207.429688 22.25 207.664062 21.125 208.132812 20.132812 C 208.601562 19.136719 209.242188 18.363281 210.050781 17.808594 C 210.863281 17.253906 211.753906 16.976562 212.734375 16.976562 C 213.855469 16.976562 214.851562 17.3125 215.710938 17.980469 C 216.574219 18.652344 217.199219 19.597656 217.597656 20.816406 L 215.945312 20.816406 Z M 215.953125 20.816406 "/>
<path style=" stroke:none;fill-rule:nonzero;fill:rgb(6.27451%,7.058824%,27.450982%);fill-opacity:1;" d="M 220.820312 17.121094 L 220.820312 29.871094 L 219.441406 29.871094 L 219.441406 17.121094 Z M 220.820312 17.121094 "/>
<path style=" stroke:none;fill-rule:nonzero;fill:rgb(6.27451%,7.058824%,27.450982%);fill-opacity:1;" d="M 229.363281 17.121094 L 229.363281 18.476562 L 226.484375 18.476562 L 226.484375 29.878906 L 225.101562 29.878906 L 225.101562 18.476562 L 222.210938 18.476562 L 222.210938 17.121094 Z M 229.363281 17.121094 "/>
<path style=" stroke:none;fill-rule:nonzero;fill:rgb(6.27451%,7.058824%,27.450982%);fill-opacity:1;" d="M 237.003906 27.039062 L 232.398438 27.039062 L 231.550781 29.878906 L 230.097656 29.878906 L 233.917969 17.199219 L 235.507812 17.199219 L 239.3125 29.878906 L 237.859375 29.878906 L 237.011719 27.039062 Z M 236.609375 25.683594 L 234.699219 19.242188 L 232.789062 25.683594 Z M 236.609375 25.683594 "/>
<path style=" stroke:none;fill-rule:nonzero;fill:rgb(6.27451%,7.058824%,27.450982%);fill-opacity:1;" d="M 242.046875 28.519531 L 245.742188 28.519531 L 245.742188 29.878906 L 240.667969 29.878906 L 240.667969 17.125 L 242.050781 17.125 L 242.050781 28.527344 Z M 242.046875 28.519531 "/>
<path style=" stroke:none;fill-rule:nonzero;fill:rgb(6.27451%,7.058824%,27.450982%);fill-opacity:1;" d="M 200.460938 41.664062 C 200.777344 41.96875 201.03125 42.347656 201.21875 42.796875 C 201.410156 43.25 201.5 43.734375 201.5 44.242188 C 201.5 44.890625 201.363281 45.472656 201.089844 45.988281 C 200.820312 46.507812 200.421875 46.914062 199.898438 47.214844 C 199.378906 47.515625 198.761719 47.664062 198.058594 47.664062 L 194.121094 47.664062 L 194.121094 34.910156 L 197.90625 34.910156 C 198.625 34.910156 199.238281 35.054688 199.742188 35.339844 C 200.25 35.628906 200.625 36.015625 200.878906 36.503906 C 201.132812 36.988281 201.257812 37.539062 201.257812 38.148438 C 201.257812 38.90625 201.085938 39.53125 200.75 40.023438 C 200.414062 40.519531 199.964844 40.878906 199.410156 41.09375 C 199.792969 41.167969 200.148438 41.359375 200.464844 41.664062 Z M 195.496094 40.417969 L 197.816406 40.417969 C 198.464844 40.417969 198.960938 40.234375 199.316406 39.867188 C 199.667969 39.503906 199.84375 38.996094 199.84375 38.347656 C 199.84375 37.703125 199.667969 37.195312 199.316406 36.832031 C 198.960938 36.464844 198.449219 36.28125 197.785156 36.28125 L 195.496094 36.28125 Z M 199.539062 45.707031 C 199.921875 45.316406 200.117188 44.769531 200.117188 44.074219 C 200.117188 43.382812 199.914062 42.8125 199.507812 42.398438 C 199.105469 41.992188 198.566406 41.789062 197.890625 41.789062 L 195.496094 41.789062 L 195.496094 46.289062 L 197.933594 46.289062 C 198.621094 46.289062 199.160156 46.09375 199.539062 45.707031 Z M 199.539062 45.707031 "/>
<path style=" stroke:none;fill-rule:nonzero;fill:rgb(6.27451%,7.058824%,27.450982%);fill-opacity:1;" d="M 204.453125 34.910156 L 204.453125 42.980469 C 204.453125 44.113281 204.683594 44.957031 205.144531 45.507812 C 205.601562 46.058594 206.242188 46.332031 207.0625 46.332031 C 207.878906 46.332031 208.5 46.058594 208.960938 45.507812 C 209.421875 44.957031 209.652344 44.117188 209.652344 42.980469 L 209.652344 34.910156 L 211.03125 34.910156 L 211.03125 42.960938 C 211.03125 44.019531 210.855469 44.914062 210.503906 45.640625 C 210.148438 46.367188 209.671875 46.90625 209.074219 47.261719 C 208.46875 47.613281 207.796875 47.792969 207.046875 47.792969 C 206.296875 47.792969 205.625 47.617188 205.023438 47.261719 C 204.421875 46.910156 203.949219 46.367188 203.597656 45.640625 C 203.25 44.914062 203.074219 44.019531 203.074219 42.960938 L 203.074219 34.910156 Z M 204.453125 34.910156 "/>
<path style=" stroke:none;fill-rule:nonzero;fill:rgb(6.27451%,7.058824%,27.450982%);fill-opacity:1;" d="M 214.507812 47.34375 C 213.957031 47.042969 213.523438 46.632812 213.210938 46.097656 C 212.898438 45.566406 212.738281 44.957031 212.730469 44.261719 L 214.203125 44.261719 C 214.253906 44.859375 214.453125 45.363281 214.8125 45.769531 C 215.171875 46.175781 215.695312 46.382812 216.382812 46.382812 C 217.066406 46.382812 217.554688 46.183594 217.9375 45.789062 C 218.3125 45.390625 218.507812 44.882812 218.507812 44.261719 C 218.507812 43.773438 218.398438 43.375 218.175781 43.070312 C 217.953125 42.765625 217.675781 42.535156 217.34375 42.375 C 217.007812 42.21875 216.5625 42.046875 215.996094 41.863281 C 215.296875 41.644531 214.738281 41.421875 214.320312 41.207031 C 213.902344 40.988281 213.542969 40.640625 213.246094 40.171875 C 212.945312 39.707031 212.796875 39.070312 212.796875 38.28125 C 212.796875 37.585938 212.945312 36.96875 213.238281 36.433594 C 213.535156 35.894531 213.945312 35.480469 214.472656 35.1875 C 215 34.894531 215.613281 34.746094 216.300781 34.746094 C 217.289062 34.746094 218.097656 35.046875 218.730469 35.644531 C 219.363281 36.242188 219.722656 37.035156 219.800781 38.023438 L 218.285156 38.023438 C 218.234375 37.539062 218.023438 37.109375 217.652344 36.734375 C 217.277344 36.363281 216.78125 36.171875 216.164062 36.171875 C 215.589844 36.171875 215.121094 36.355469 214.757812 36.714844 C 214.394531 37.078125 214.210938 37.578125 214.210938 38.222656 C 214.210938 38.6875 214.320312 39.066406 214.535156 39.359375 C 214.753906 39.648438 215.019531 39.871094 215.339844 40.023438 C 215.660156 40.179688 216.105469 40.355469 216.683594 40.546875 C 217.382812 40.78125 217.941406 41.007812 218.367188 41.234375 C 218.792969 41.460938 219.15625 41.808594 219.460938 42.273438 C 219.761719 42.742188 219.914062 43.382812 219.914062 44.1875 C 219.914062 44.808594 219.777344 45.394531 219.503906 45.941406 C 219.234375 46.488281 218.828125 46.9375 218.289062 47.28125 C 217.757812 47.621094 217.121094 47.792969 216.394531 47.792969 C 215.667969 47.792969 215.074219 47.644531 214.523438 47.34375 Z M 214.507812 47.34375 "/>
<path style=" stroke:none;fill-rule:nonzero;fill:rgb(6.27451%,7.058824%,27.450982%);fill-opacity:1;" d="M 223 34.910156 L 223 47.664062 L 221.621094 47.664062 L 221.621094 34.910156 Z M 223 34.910156 "/>
<path style=" stroke:none;fill-rule:nonzero;fill:rgb(6.27451%,7.058824%,27.450982%);fill-opacity:1;" d="M 233.351562 47.664062 L 231.972656 47.664062 L 226.421875 37.507812 L 226.421875 47.664062 L 225.042969 47.664062 L 225.042969 34.890625 L 226.421875 34.890625 L 231.972656 45.03125 L 231.972656 34.890625 L 233.351562 34.890625 Z M 233.351562 47.664062 "/>
<path style=" stroke:none;fill-rule:nonzero;fill:rgb(6.27451%,7.058824%,27.450982%);fill-opacity:1;" d="M 236.773438 36.265625 L 236.773438 40.53125 L 240.625 40.53125 L 240.625 41.898438 L 236.773438 41.898438 L 236.773438 46.292969 L 241.074219 46.292969 L 241.074219 47.664062 L 235.394531 47.664062 L 235.394531 34.890625 L 241.074219 34.890625 L 241.074219 36.261719 L 236.773438 36.261719 Z M 236.773438 36.265625 "/>
<path style=" stroke:none;fill-rule:nonzero;fill:rgb(6.27451%,7.058824%,27.450982%);fill-opacity:1;" d="M 244.339844 47.34375 C 243.789062 47.042969 243.355469 46.632812 243.042969 46.097656 C 242.730469 45.566406 242.570312 44.957031 242.558594 44.261719 L 244.03125 44.261719 C 244.082031 44.859375 244.285156 45.363281 244.644531 45.769531 C 245.003906 46.175781 245.527344 46.382812 246.214844 46.382812 C 246.898438 46.382812 247.386719 46.183594 247.765625 45.789062 C 248.144531 45.390625 248.339844 44.882812 248.339844 44.261719 C 248.339844 43.773438 248.226562 43.375 248.007812 43.070312 C 247.785156 42.765625 247.503906 42.535156 247.175781 42.375 C 246.839844 42.21875 246.390625 42.046875 245.828125 41.863281 C 245.128906 41.644531 244.570312 41.421875 244.152344 41.207031 C 243.734375 40.988281 243.375 40.640625 243.074219 40.171875 C 242.777344 39.707031 242.628906 39.070312 242.628906 38.28125 C 242.628906 37.585938 242.777344 36.96875 243.070312 36.433594 C 243.363281 35.894531 243.773438 35.480469 244.304688 35.1875 C 244.832031 34.894531 245.445312 34.746094 246.128906 34.746094 C 247.117188 34.746094 247.929688 35.046875 248.5625 35.644531 C 249.195312 36.242188 249.554688 37.035156 249.628906 38.023438 L 248.117188 38.023438 C 248.066406 37.539062 247.855469 37.109375 247.484375 36.734375 C 247.109375 36.363281 246.613281 36.171875 245.996094 36.171875 C 245.421875 36.171875 244.953125 36.355469 244.589844 36.714844 C 244.226562 37.078125 244.042969 37.578125 244.042969 38.222656 C 244.042969 38.6875 244.152344 39.066406 244.367188 39.359375 C 244.585938 39.648438 244.851562 39.871094 245.171875 40.023438 C 245.492188 40.179688 245.9375 40.355469 246.515625 40.546875 C 247.214844 40.78125 247.773438 41.007812 248.199219 41.234375 C 248.625 41.460938 248.988281 41.808594 249.289062 42.273438 C 249.59375 42.742188 249.746094 43.382812 249.746094 44.1875 C 249.746094 44.808594 249.605469 45.394531 249.335938 45.941406 C 249.066406 46.488281 248.660156 46.9375 248.121094 47.28125 C 247.589844 47.621094 246.953125 47.792969 246.226562 47.792969 C 245.5 47.792969 244.90625 47.644531 244.355469 47.34375 Z M 244.339844 47.34375 "/>
<path style=" stroke:none;fill-rule:nonzero;fill:rgb(6.27451%,7.058824%,27.450982%);fill-opacity:1;" d="M 252.933594 47.34375 C 252.382812 47.042969 251.949219 46.632812 251.636719 46.097656 C 251.324219 45.566406 251.164062 44.957031 251.152344 44.261719 L 252.625 44.261719 C 252.675781 44.859375 252.878906 45.363281 253.238281 45.769531 C 253.597656 46.175781 254.121094 46.382812 254.804688 46.382812 C 255.492188 46.382812 255.980469 46.183594 256.359375 45.789062 C 256.738281 45.390625 256.929688 44.882812 256.929688 44.261719 C 256.929688 43.773438 256.820312 43.375 256.601562 43.070312 C 256.378906 42.765625 256.097656 42.535156 255.765625 42.375 C 255.429688 42.21875 254.984375 42.046875 254.417969 41.863281 C 253.71875 41.644531 253.164062 41.421875 252.746094 41.207031 C 252.324219 40.988281 251.96875 40.640625 251.667969 40.171875 C 251.371094 39.707031 251.222656 39.070312 251.222656 38.28125 C 251.222656 37.585938 251.371094 36.96875 251.664062 36.433594 C 251.957031 35.894531 252.367188 35.480469 252.898438 35.1875 C 253.425781 34.894531 254.039062 34.746094 254.722656 34.746094 C 255.710938 34.746094 256.523438 35.046875 257.15625 35.644531 C 257.785156 36.242188 258.144531 37.035156 258.222656 38.023438 L 256.710938 38.023438 C 256.660156 37.539062 256.449219 37.109375 256.074219 36.734375 C 255.703125 36.363281 255.207031 36.171875 254.589844 36.171875 C 254.015625 36.171875 253.546875 36.355469 253.183594 36.714844 C 252.820312 37.078125 252.632812 37.578125 252.632812 38.222656 C 252.632812 38.6875 252.746094 39.066406 252.960938 39.359375 C 253.175781 39.648438 253.445312 39.871094 253.765625 40.023438 C 254.082031 40.179688 254.53125 40.355469 255.109375 40.546875 C 255.808594 40.78125 256.367188 41.007812 256.792969 41.234375 C 257.214844 41.460938 257.578125 41.808594 257.882812 42.273438 C 258.1875 42.742188 258.339844 43.382812 258.339844 44.1875 C 258.339844 44.808594 258.199219 45.394531 257.929688 45.941406 C 257.65625 46.488281 257.253906 46.9375 256.714844 47.28125 C 256.179688 47.621094 255.546875 47.792969 254.820312 47.792969 C 254.09375 47.792969 253.5 47.644531 252.945312 47.34375 Z M 252.933594 47.34375 "/>
<path style=" stroke:none;fill-rule:nonzero;fill:rgb(6.27451%,7.058824%,27.450982%);fill-opacity:1;" d="M 200.363281 62.621094 L 195.761719 62.621094 L 194.914062 65.457031 L 193.460938 65.457031 L 197.277344 52.777344 L 198.871094 52.777344 L 202.671875 65.457031 L 201.21875 65.457031 L 200.375 62.621094 Z M 199.96875 61.265625 L 198.058594 54.824219 L 196.152344 61.265625 Z M 199.96875 61.265625 "/>
<path style=" stroke:none;fill-rule:nonzero;fill:rgb(6.27451%,7.058824%,27.450982%);fill-opacity:1;" d="M 205.507812 65.132812 C 204.953125 64.832031 204.523438 64.421875 204.210938 63.890625 C 203.898438 63.355469 203.734375 62.746094 203.726562 62.050781 L 205.199219 62.050781 C 205.25 62.648438 205.453125 63.152344 205.808594 63.5625 C 206.167969 63.96875 206.695312 64.171875 207.378906 64.171875 C 208.066406 64.171875 208.550781 63.972656 208.933594 63.578125 C 209.3125 63.179688 209.503906 62.671875 209.503906 62.050781 C 209.503906 61.566406 209.394531 61.167969 209.171875 60.863281 C 208.953125 60.554688 208.671875 60.324219 208.339844 60.167969 C 208.003906 60.011719 207.558594 59.839844 206.992188 59.652344 C 206.292969 59.4375 205.738281 59.214844 205.320312 58.996094 C 204.898438 58.777344 204.539062 58.429688 204.242188 57.964844 C 203.941406 57.496094 203.796875 56.863281 203.796875 56.070312 C 203.796875 55.375 203.941406 54.761719 204.238281 54.222656 C 204.53125 53.6875 204.941406 53.269531 205.46875 52.976562 C 206 52.6875 206.609375 52.539062 207.296875 52.539062 C 208.285156 52.539062 209.09375 52.839844 209.730469 53.4375 C 210.359375 54.035156 210.71875 54.824219 210.796875 55.816406 L 209.285156 55.816406 C 209.234375 55.328125 209.023438 54.898438 208.648438 54.523438 C 208.277344 54.152344 207.78125 53.964844 207.164062 53.964844 C 206.589844 53.964844 206.117188 54.144531 205.753906 54.503906 C 205.390625 54.867188 205.207031 55.367188 205.207031 56.015625 C 205.207031 56.476562 205.320312 56.859375 205.535156 57.148438 C 205.75 57.441406 206.015625 57.664062 206.339844 57.816406 C 206.65625 57.96875 207.101562 58.144531 207.683594 58.339844 C 208.382812 58.570312 208.9375 58.796875 209.367188 59.023438 C 209.789062 59.25 210.152344 59.597656 210.457031 60.066406 C 210.761719 60.53125 210.914062 61.171875 210.914062 61.976562 C 210.914062 62.597656 210.773438 63.1875 210.503906 63.730469 C 210.230469 64.277344 209.828125 64.726562 209.289062 65.070312 C 208.753906 65.414062 208.121094 65.582031 207.394531 65.582031 C 206.667969 65.582031 206.074219 65.4375 205.519531 65.132812 Z M 205.507812 65.132812 "/>
<path style=" stroke:none;fill-rule:nonzero;fill:rgb(6.27451%,7.058824%,27.450982%);fill-opacity:1;" d="M 214.097656 65.132812 C 213.546875 64.832031 213.117188 64.421875 212.804688 63.890625 C 212.488281 63.355469 212.328125 62.746094 212.320312 62.050781 L 213.792969 62.050781 C 213.84375 62.648438 214.046875 63.152344 214.402344 63.5625 C 214.761719 63.96875 215.285156 64.171875 215.972656 64.171875 C 216.65625 64.171875 217.144531 63.972656 217.527344 63.578125 C 217.902344 63.179688 218.097656 62.671875 218.097656 62.050781 C 218.097656 61.566406 217.988281 61.167969 217.765625 60.863281 C 217.546875 60.554688 217.265625 60.324219 216.933594 60.167969 C 216.597656 60.011719 216.152344 59.839844 215.585938 59.652344 C 214.886719 59.4375 214.328125 59.214844 213.910156 58.996094 C 213.492188 58.777344 213.132812 58.429688 212.835938 57.964844 C 212.535156 57.496094 212.390625 56.863281 212.390625 56.070312 C 212.390625 55.375 212.535156 54.761719 212.832031 54.222656 C 213.125 53.6875 213.535156 53.269531 214.0625 52.976562 C 214.59375 52.6875 215.203125 52.539062 215.890625 52.539062 C 216.878906 52.539062 217.6875 52.839844 218.324219 53.4375 C 218.953125 54.035156 219.3125 54.824219 219.390625 55.816406 L 217.875 55.816406 C 217.824219 55.328125 217.613281 54.898438 217.242188 54.523438 C 216.871094 54.152344 216.371094 53.964844 215.753906 53.964844 C 215.179688 53.964844 214.710938 54.144531 214.347656 54.503906 C 213.984375 54.867188 213.800781 55.367188 213.800781 56.015625 C 213.800781 56.476562 213.910156 56.859375 214.128906 57.148438 C 214.34375 57.441406 214.609375 57.664062 214.933594 57.816406 C 215.25 57.96875 215.695312 58.144531 216.277344 58.339844 C 216.976562 58.570312 217.53125 58.796875 217.960938 59.023438 C 218.382812 59.25 218.746094 59.597656 219.050781 60.066406 C 219.351562 60.53125 219.503906 61.171875 219.503906 61.976562 C 219.503906 62.597656 219.367188 63.1875 219.09375 63.730469 C 218.824219 64.277344 218.417969 64.726562 217.882812 65.070312 C 217.347656 65.414062 216.714844 65.582031 215.984375 65.582031 C 215.257812 65.582031 214.667969 65.4375 214.113281 65.132812 Z M 214.097656 65.132812 "/>
<path style=" stroke:none;fill-rule:nonzero;fill:rgb(6.27451%,7.058824%,27.450982%);fill-opacity:1;" d="M 222.558594 52.699219 L 222.558594 60.769531 C 222.558594 61.902344 222.789062 62.746094 223.25 63.296875 C 223.710938 63.847656 224.347656 64.121094 225.167969 64.121094 C 225.988281 64.121094 226.605469 63.847656 227.066406 63.296875 C 227.527344 62.746094 227.757812 61.90625 227.757812 60.769531 L 227.757812 52.699219 L 229.136719 52.699219 L 229.136719 60.75 C 229.136719 61.8125 228.964844 62.703125 228.609375 63.429688 C 228.253906 64.15625 227.777344 64.695312 227.175781 65.050781 C 226.574219 65.402344 225.902344 65.582031 225.152344 65.582031 C 224.402344 65.582031 223.734375 65.40625 223.128906 65.050781 C 222.527344 64.699219 222.054688 64.15625 221.703125 63.429688 C 221.355469 62.703125 221.179688 61.8125 221.179688 60.75 L 221.179688 52.699219 Z M 222.558594 52.699219 "/>
<path style=" stroke:none;fill-rule:nonzero;fill:rgb(6.27451%,7.058824%,27.450982%);fill-opacity:1;" d="M 236.699219 65.453125 L 234.183594 60.238281 L 232.519531 60.238281 L 232.519531 65.453125 L 231.136719 65.453125 L 231.136719 52.699219 L 234.546875 52.699219 C 235.34375 52.699219 236.019531 52.867188 236.570312 53.195312 C 237.125 53.523438 237.53125 53.96875 237.804688 54.535156 C 238.074219 55.09375 238.214844 55.738281 238.214844 56.453125 C 238.214844 57.335938 238 58.105469 237.582031 58.777344 C 237.164062 59.449219 236.535156 59.894531 235.695312 60.117188 L 238.347656 65.457031 L 236.695312 65.457031 Z M 232.519531 58.902344 L 234.546875 58.902344 C 235.292969 58.902344 235.855469 58.679688 236.230469 58.238281 C 236.601562 57.792969 236.792969 57.195312 236.792969 56.453125 C 236.792969 55.714844 236.609375 55.113281 236.238281 54.695312 C 235.871094 54.277344 235.304688 54.074219 234.550781 54.074219 L 232.523438 54.074219 L 232.523438 58.910156 Z M 232.519531 58.902344 "/>
<path style=" stroke:none;fill-rule:nonzero;fill:rgb(6.27451%,7.058824%,27.450982%);fill-opacity:1;" d="M 246.289062 62.621094 L 241.6875 62.621094 L 240.839844 65.457031 L 239.386719 65.457031 L 243.203125 52.777344 L 244.796875 52.777344 L 248.601562 65.457031 L 247.144531 65.457031 L 246.300781 62.621094 Z M 245.894531 61.265625 L 243.984375 54.824219 L 242.078125 61.265625 Z M 245.894531 61.265625 "/>
<path style=" stroke:none;fill-rule:nonzero;fill:rgb(6.27451%,7.058824%,27.450982%);fill-opacity:1;" d="M 258.261719 65.453125 L 256.878906 65.453125 L 251.332031 55.296875 L 251.332031 65.453125 L 249.953125 65.453125 L 249.953125 52.683594 L 251.332031 52.683594 L 256.878906 62.820312 L 256.878906 52.683594 L 258.261719 52.683594 Z M 258.261719 65.453125 "/>
<path style=" stroke:none;fill-rule:nonzero;fill:rgb(6.27451%,7.058824%,27.450982%);fill-opacity:1;" d="M 260.488281 55.714844 C 260.953125 54.71875 261.585938 53.941406 262.386719 53.378906 C 263.191406 52.820312 264.078125 52.539062 265.058594 52.539062 C 266.207031 52.539062 267.21875 52.875 268.078125 53.542969 C 268.9375 54.214844 269.5625 55.167969 269.953125 56.398438 L 268.300781 56.398438 C 268.007812 55.628906 267.589844 55.039062 267.035156 54.625 C 266.484375 54.210938 265.828125 54.003906 265.058594 54.003906 C 264.292969 54.003906 263.660156 54.214844 263.078125 54.625 C 262.492188 55.042969 262.03125 55.628906 261.695312 56.390625 C 261.359375 57.148438 261.195312 58.046875 261.195312 59.070312 C 261.195312 60.09375 261.359375 60.96875 261.695312 61.730469 C 262.027344 62.496094 262.488281 63.082031 263.078125 63.496094 C 263.660156 63.914062 264.324219 64.117188 265.058594 64.117188 C 265.792969 64.117188 266.484375 63.914062 267.035156 63.503906 C 267.589844 63.097656 268.007812 62.511719 268.300781 61.742188 L 269.953125 61.742188 C 269.558594 62.964844 268.933594 63.902344 268.078125 64.570312 C 267.21875 65.238281 266.214844 65.566406 265.058594 65.566406 C 264.078125 65.566406 263.1875 65.289062 262.386719 64.730469 C 261.582031 64.175781 260.953125 63.402344 260.488281 62.417969 C 260.023438 61.429688 259.789062 60.3125 259.789062 59.070312 C 259.789062 57.828125 260.015625 56.703125 260.488281 55.714844 Z M 260.488281 55.714844 "/>
<path style=" stroke:none;fill-rule:nonzero;fill:rgb(6.27451%,7.058824%,27.450982%);fill-opacity:1;" d="M 273.082031 54.058594 L 273.082031 58.320312 L 276.933594 58.320312 L 276.933594 59.691406 L 273.082031 59.691406 L 273.082031 64.082031 L 277.382812 64.082031 L 277.382812 65.453125 L 271.703125 65.453125 L 271.703125 52.683594 L 277.382812 52.683594 L 277.382812 54.050781 L 273.082031 54.050781 Z M 273.082031 54.058594 "/>
</g>
</svg>
